<svg width="45" height="44" viewBox="0 0 45 44" fill="none" xmlns="http://www.w3.org/2000/svg">
<g clip-path="url(#clip0_51_7)">
<ellipse cx="22.6419" cy="21.5" rx="17.6104" ry="17.5" fill="#D9D9D9"/>
<path d="M22.1387 40.3333C11.9493 40.3333 3.6897 32.1255 3.6897 22C3.6897 11.8745 11.9493 3.66666 22.1387 3.66666C32.3281 3.66666 40.5877 11.8745 40.5877 22C40.5877 32.1255 32.3281 40.3333 22.1387 40.3333ZM12.9382 33.4693C15.5497 35.5441 18.7951 36.6719 22.1387 36.6667C25.7732 36.6667 29.0995 35.3613 31.6713 33.198C30.4698 31.9729 29.0332 30.9996 27.4465 30.3358C25.8599 29.672 24.1554 29.3311 22.4339 29.3333C20.6491 29.3313 18.8834 29.6979 17.2487 30.4099C15.6141 31.1219 14.1462 32.1637 12.9382 33.4693ZM10.3609 30.8367C11.9114 29.2015 13.7825 27.8991 15.8589 27.01C17.9353 26.1208 20.1729 25.6636 22.4339 25.6667C24.6139 25.6638 26.773 26.089 28.7872 26.9177C30.8015 27.7464 32.6311 28.9623 34.1711 30.4957C35.7505 28.2867 36.6832 25.6862 36.8657 22.9825C37.0483 20.2788 36.4735 17.5778 35.2052 15.179C33.9369 12.7802 32.0246 10.7775 29.6806 9.39297C27.3365 8.00848 24.6524 7.29636 21.9258 7.33562C19.1993 7.37488 16.537 8.16398 14.2343 9.61538C11.9316 11.0668 10.0785 13.1237 8.88068 15.558C7.68284 17.9923 7.18706 20.7088 7.44834 23.4061C7.70962 26.1033 8.71774 28.6741 10.3609 30.8367ZM22.1387 23.8333C20.1815 23.8333 18.3045 23.0607 16.9205 21.6854C15.5366 20.3102 14.7591 18.4449 14.7591 16.5C14.7591 14.5551 15.5366 12.6898 16.9205 11.3145C18.3045 9.93927 20.1815 9.16666 22.1387 9.16666C24.0959 9.16666 25.9729 9.93927 27.3569 11.3145C28.7408 12.6898 29.5183 14.5551 29.5183 16.5C29.5183 18.4449 28.7408 20.3102 27.3569 21.6854C25.9729 23.0607 24.0959 23.8333 22.1387 23.8333ZM22.1387 20.1667C23.1173 20.1667 24.0558 19.7803 24.7478 19.0927C25.4398 18.4051 25.8285 17.4725 25.8285 16.5C25.8285 15.5275 25.4398 14.5949 24.7478 13.9073C24.0558 13.2196 23.1173 12.8333 22.1387 12.8333C21.1601 12.8333 20.2216 13.2196 19.5296 13.9073C18.8376 14.5949 18.4489 15.5275 18.4489 16.5C18.4489 17.4725 18.8376 18.4051 19.5296 19.0927C20.2216 19.7803 21.1601 20.1667 22.1387 20.1667Z" fill="black"/>
</g>
<defs>
<clipPath id="clip0_51_7">
<rect width="44.2776" height="44" fill="white"/>
</clipPath>
</defs>
</svg>
