<svg width="100" height="39" viewBox="0 0 100 39" fill="none" xmlns="http://www.w3.org/2000/svg">
<path d="M26.0682 15.4545C26.0682 18.5227 25.5142 21.1742 24.4062 23.4091C23.2983 25.6439 21.7784 27.3674 19.8466 28.5795C17.9148 29.7917 15.7083 30.3977 13.2273 30.3977C10.7462 30.3977 8.53977 29.7917 6.60795 28.5795C4.67614 27.3674 3.15625 25.6439 2.0483 23.4091C0.940341 21.1742 0.386364 18.5227 0.386364 15.4545C0.386364 12.3864 0.940341 9.73485 2.0483 7.5C3.15625 5.26515 4.67614 3.54167 6.60795 2.32955C8.53977 1.11742 10.7462 0.511363 13.2273 0.511363C15.7083 0.511363 17.9148 1.11742 19.8466 2.32955C21.7784 3.54167 23.2983 5.26515 24.4062 7.5C25.5142 9.73485 26.0682 12.3864 26.0682 15.4545ZM22.6591 15.4545C22.6591 12.9356 22.2377 10.8097 21.3949 9.0767C20.5616 7.34375 19.4299 6.0322 18 5.14205C16.5795 4.25189 14.9886 3.80682 13.2273 3.80682C11.4659 3.80682 9.87027 4.25189 8.44034 5.14205C7.01989 6.0322 5.88826 7.34375 5.04545 9.0767C4.21212 10.8097 3.79545 12.9356 3.79545 15.4545C3.79545 17.9735 4.21212 20.0994 5.04545 21.8324C5.88826 23.5653 7.01989 24.8769 8.44034 25.767C9.87027 26.6572 11.4659 27.1023 13.2273 27.1023C14.9886 27.1023 16.5795 26.6572 18 25.767C19.4299 24.8769 20.5616 23.5653 21.3949 21.8324C22.2377 20.0994 22.6591 17.9735 22.6591 15.4545ZM39.9369 38.1818V8.18182H43.1756V11.6477H43.5733C43.8195 11.2689 44.1604 10.786 44.596 10.1989C45.0411 9.60227 45.6756 9.07197 46.4994 8.60795C47.3328 8.13447 48.4597 7.89773 49.8801 7.89773C51.7172 7.89773 53.3366 8.35701 54.7381 9.27557C56.1396 10.1941 57.2333 11.4962 58.0193 13.1818C58.8053 14.8674 59.1983 16.8561 59.1983 19.1477C59.1983 21.4583 58.8053 23.4612 58.0193 25.1562C57.2333 26.8419 56.1443 28.1487 54.7523 29.0767C53.3602 29.9953 51.7551 30.4545 49.9369 30.4545C48.5354 30.4545 47.4133 30.2225 46.5705 29.7585C45.7277 29.285 45.079 28.75 44.6244 28.1534C44.1699 27.5473 43.8195 27.0455 43.5733 26.6477H43.2892V38.1818H39.9369ZM43.2324 19.0909C43.2324 20.7386 43.4739 22.1922 43.9568 23.4517C44.4398 24.7017 45.1453 25.6818 46.0733 26.392C47.0013 27.0928 48.1377 27.4432 49.4824 27.4432C50.8839 27.4432 52.0534 27.0739 52.9909 26.3352C53.9379 25.5871 54.6481 24.5833 55.1216 23.3239C55.6045 22.0549 55.846 20.6439 55.846 19.0909C55.846 17.5568 55.6093 16.1742 55.1358 14.9432C54.6718 13.7027 53.9663 12.7225 53.0193 12.0028C52.0818 11.2737 50.9028 10.9091 49.4824 10.9091C48.1188 10.9091 46.9729 11.2547 46.0449 11.946C45.1169 12.6278 44.4161 13.5843 43.9426 14.8153C43.4691 16.0369 43.2324 17.4621 43.2324 19.0909ZM82.2006 8.18182V11.0227H70.8938V8.18182H82.2006ZM74.1892 2.95455H77.5415V23.75C77.5415 24.697 77.6788 25.4072 77.9534 25.8807C78.2375 26.3447 78.5974 26.6572 79.033 26.8182C79.478 26.9697 79.9468 27.0455 80.4392 27.0455C80.8085 27.0455 81.1116 27.0265 81.3483 26.9886C81.585 26.9413 81.7744 26.9034 81.9165 26.875L82.5983 29.8864C82.371 29.9716 82.0538 30.0568 81.6466 30.142C81.2394 30.2367 80.7233 30.2841 80.0983 30.2841C79.1513 30.2841 78.2233 30.0805 77.3142 29.6733C76.4146 29.2661 75.6665 28.6458 75.0699 27.8125C74.4828 26.9792 74.1892 25.928 74.1892 24.6591V2.95455ZM95.6432 30V8.18182H98.9955V30H95.6432ZM97.3477 4.54545C96.6943 4.54545 96.1309 4.32292 95.6574 3.87784C95.1934 3.43277 94.9614 2.89773 94.9614 2.27273C94.9614 1.64773 95.1934 1.11269 95.6574 0.667613C96.1309 0.222538 96.6943 0 97.3477 0C98.0011 0 98.5598 0.222538 99.0239 0.667613C99.4973 1.11269 99.7341 1.64773 99.7341 2.27273C99.7341 2.89773 99.4973 3.43277 99.0239 3.87784C98.5598 4.32292 98.0011 4.54545 97.3477 4.54545Z" fill="black"/>
</svg>
